<?xml version="1.0" standalone="no"?>
<!DOCTYPE svg PUBLIC "-//W3C//DTD SVG 20010904//EN"
 "http://www.w3.org/TR/2001/REC-SVG-20010904/DTD/svg10.dtd">
<svg version="1.0" xmlns="http://www.w3.org/2000/svg"
 width="512.000000pt" height="512.000000pt" viewBox="0 0 512.000000 512.000000"
 preserveAspectRatio="xMidYMid meet">
<metadata>
Created by potrace 1.14, written by Peter Selinger 2001-2017
</metadata>
<g transform="translate(0.000000,512.000000) scale(0.100000,-0.100000)"
fill="#000000" stroke="none">
<path d="M432 5106 c-150 -37 -295 -150 -366 -285 -70 -134 -66 27 -65 -2261
0 -1407 3 -2081 10 -2115 20 -93 83 -208 154 -279 71 -71 186 -135 280 -155
52 -11 4205 -11 4235 0 8 3 29 9 45 14 67 17 170 81 232 143 69 69 132 185
152 277 15 70 15 4162 0 4225 -6 25 -12 52 -14 60 -5 25 -39 92 -68 138 -62
96 -172 182 -289 224 l-63 23 -2095 2 c-1675 1 -2106 -1 -2148 -11z m2769
-1268 c5 -123 0 -1800 -5 -1853 -13 -135 -33 -209 -83 -309 -73 -148 -159
-237 -299 -311 -69 -36 -124 -55 -244 -80 -88 -19 -130 -22 -260 -20 -194 3
-301 25 -512 102 l-98 35 0 339 c0 186 3 339 6 339 5 0 154 -100 164 -110 13
-14 139 -89 170 -101 20 -8 69 -14 115 -14 124 1 211 49 257 143 l23 47 0 907
0 908 383 0 382 0 1 -22z"/>
</g>
</svg>
