<svg width="40" height="40" viewBox="0 0 256 256" fill="none" xmlns="http://www.w3.org/2000/svg">
<rect width="256" height="256" rx="28" fill="#65A30D"/>
<path d="M117.023 193C111.178 193 105.523 192.301 100.059 190.903C94.7214 189.505 89.7019 187.79 85 185.757V151.636C89.7019 154.94 93.7683 157.736 97.1994 160.023C100.63 162.311 103.935 163.455 107.111 163.455C111.178 163.455 114.609 162.374 117.405 160.214C120.327 158.054 121.789 154.559 121.789 149.73V63H160.103V151.255C160.103 159.134 158.832 165.742 156.29 171.079C153.876 176.416 150.635 180.737 146.569 184.041C142.502 187.218 137.864 189.505 132.654 190.903C127.571 192.301 122.361 193 117.023 193Z" fill="#FAFAF9"/>
</svg>